<svg id="Layer_1" data-name="Layer 1" xmlns="http://www.w3.org/2000/svg" viewBox="0 0 490.781 508.989" fill="#E7FC44"><path d="M103.866,58.59c-6.52-.82-5.27-10.77,1.25-9.92l97.06,12.42-1.5-15.96a22.849,22.849,0,0,1-2.69-43.71c17.97-6.6,36.85,10.86,28.77,30.7-2.72,6.66-9.24,11.59-16.04,13.1l1.64,17.18,148.76,19.08c9.3-17.32,34.81-15.51,41.58,2.95,6.97,19.02-12.61,37.13-31.07,28.6a23.074,23.074,0,0,1-5.02-3.17L332,141.81a5.007,5.007,0,1,1-6.78-7.37l35.26-32.54a22.675,22.675,0,0,1-2.07-10.69l-145.1-18.62,2.24,23.5c.62,6.55-9.35,7.51-9.98.94l-2.44-25.74Zm265.32,38.09a12.82,12.82,0,1,0,7.63-16.44,12.835,12.835,0,0,0-7.63,16.44ZM290.95,164.15l12.42-11.45a5.017,5.017,0,0,1,6.81,7.37l-10.03,9.27a22.818,22.818,0,0,1,6.86,21.34l40,36.34a5.008,5.008,0,0,1-6.75,7.4l-37.67-34.21a22.784,22.784,0,0,1-21.77,8.42l-30.9,136.74a22.563,22.563,0,0,1,8.36,6.75l83.93-89.75a4.988,4.988,0,1,1,7.29,6.81l-86.83,92.89a22.9,22.9,0,0,1-14.66,25.4c-17.63,6.49-35.06-10.03-29.79-27.89L119.18,247.55A22.839,22.839,0,0,1,86.7,235.42c-6.94-18.94,12.47-37.13,31.07-28.6a22.9,22.9,0,0,1,10.86,10.57l84.39-20.66L208,143.52,184.25,128.5a5.008,5.008,0,0,1,5.33-8.48l17.23,10.89-.57-5.78c-.62-6.55,9.35-7.51,9.98-.94l1.28,13.49,50.97,32.26a22.811,22.811,0,0,1,22.48-5.79Zm167.33-7.7a8.085,8.085,0,0,1-1.02-.51c-.06.09-.11.14-.14.2l-77.44,82.8a4.995,4.995,0,0,1-7.29-6.83l77.24-82.63a22.858,22.858,0,0,1,10.38-35.21c19.05-6.97,37.13,12.64,28.6,31.04a22.823,22.823,0,0,1-30.33,11.14Zm-2.44-16.3c4,10.88,19.11,11.08,23.67.96a12.823,12.823,0,1,0-23.67-.96ZM89.63,58.816l59.56,37.7a5,5,0,1,1-5.33,8.45L85.15,67.836a22.85,22.85,0,1,1-25.59-35.86c17.15-6.3,34.35,9.18,30.07,26.84ZM263.08,178.38l-44.42-28.09,4.17,44.02,38.95-9.52a24.272,24.272,0,0,1,1.3-6.41ZM426.5,305.856a12.84,12.84,0,0,0,16.02,17.57c10.86-4,11.11-19.13.96-23.7a12.88,12.88,0,0,0-16.98,6.13Zm-10.46-.51-43.74-39.77a5.008,5.008,0,0,1,6.75-7.4l41.92,38.07a22.854,22.854,0,1,1,24.97,36.6c-17.45,6.4-34.8-9.73-29.9-27.5ZM296.62,190.63a12.834,12.834,0,0,0-16.44-16.55c-10.72,3.91-11.28,18.91-.96,23.67a12.887,12.887,0,0,0,17.4-7.12Zm-69.37,156.5L213.96,206.79l-82.97,20.32a23.054,23.054,0,0,1-4.34,13.83l96.8,109.47a23.474,23.474,0,0,1,3.8-3.28ZM223.8,204.37l13.15,139.01a24.347,24.347,0,0,1,3.2-.23l31.27-138.39a22.815,22.815,0,0,1-7.99-10.09ZM193.806,27.29c4,10.89,19.11,11.08,23.67.96a12.823,12.823,0,1,0-23.67-.96ZM55.36,57.856c3.94,10.72,18.91,11.28,23.7.96s-5.36-21.34-16.07-17.43a12.846,12.846,0,0,0-7.63,16.47ZM96.09,231.95a12.82,12.82,0,1,0,7.63-16.44,12.835,12.835,0,0,0-7.63,16.44ZM228.1,370.43c3.91,10.71,18.91,11.31,23.67.99a12.82,12.82,0,1,0-23.67-.99Z"/><g id="_83OTO5" data-name="83OTO5"><path d="M329.6,508.989H127.019l-.69-4.187q-.3-1.818-.588-3.624c-.428-2.664-.833-5.181-1.291-7.733-1.855-10.33-3.541-18.889-6.9-27.17a42.648,42.648,0,0,0-2.97-5.562q-.337-.565-.672-1.131-9.321-.032-18.645-.109c-10.4-.076-21.161-.154-31.729-.11h-.146a40.226,40.226,0,0,1-18.615-4.8,38.485,38.485,0,0,1-15.762-15.337,21.731,21.731,0,0,1-2.044-16.34c.966-3.981,2.184-7.886,3.363-11.662.442-1.419.885-2.839,1.315-4.261.5-1.675,1.064-3.367,1.662-5.03a6.793,6.793,0,0,0-.74-6.286,52.994,52.994,0,0,0-3.341-4.591l-.792-1.017c-.444-.573-.985-1.168-1.558-1.8-.339-.373-.678-.745-1.009-1.124-3.705-4.238-3.862-8.452-.477-12.881,1.038-1.358,2.142-2.556,3.209-3.715.126-.135.251-.272.376-.408-1.049-.789-2.127-1.61-3.189-2.556-5.825-5.188-6.533-12.048-1.895-18.351.387-.527.782-1.049,1.176-1.571s.79-1.044,1.177-1.572a7.1,7.1,0,0,0,1.463-3.537,15.613,15.613,0,0,1,.94-3.655c.108-.3.218-.606.31-.909.126-.417.26-.83.394-1.243.248-.765.482-1.487.618-2.119a4.44,4.44,0,0,0,.1-.7,3.925,3.925,0,0,0-.464-.247,9.58,9.58,0,0,0-3.265-.923c-6.4-.39-11.379-3.1-16.765-6.331A28.926,28.926,0,0,1,3.979,322,13.744,13.744,0,0,1,.366,309.014c1.186-5.492,3.845-10,6.467-14.154a245.656,245.656,0,0,1,15.94-21.589q1.306-1.64,2.612-3.283c6.993-8.827,14.037-17.866,20.85-26.607l1.356-1.74c.564-.723,1.1-1.512,1.654-2.366-2.916-7.577-3.4-15.974-1.479-25.6,7.3-36.606,27.555-65.427,60.192-85.662,14.528-9.007,30.741-15.25,49.564-19.085a200.669,200.669,0,0,1,52.84-3.389,224.268,224.268,0,0,1,48.044,7.886c19.339,5.468,35.881,13.139,50.572,23.452,28.45,19.971,46.78,47.079,54.48,80.571a150.908,150.908,0,0,1,3.146,45.756c-1.55,20.624-6.512,40.877-15.17,61.916-2.985,7.253-7.223,13.522-11.321,19.586q-2.157,3.19-4.331,6.371c-3.717,5.451-7.561,11.089-11.161,16.707a76.834,76.834,0,0,0-9.548,21.175,38.683,38.683,0,0,0-.971,9.918A209.584,209.584,0,0,0,316,426.2l.357,2.772c1.411,10.963,2.87,22.3,4.689,33.343,1.529,9.278,3.333,18.7,5.078,27.817q1.17,6.1,2.317,12.209Zm-194.086-10H317.632q-.662-3.489-1.332-6.976c-1.758-9.177-3.574-18.667-5.124-28.073-1.848-11.216-3.318-22.642-4.74-33.692l-.357-2.769A219.6,219.6,0,0,1,304.1,398.86a47.357,47.357,0,0,1,1.323-12.529A86.8,86.8,0,0,1,316.2,362.393c3.676-5.738,7.561-11.436,11.318-16.946q2.157-3.165,4.308-6.337c3.816-5.646,7.763-11.486,10.358-17.791,8.251-20.05,12.976-39.3,14.445-58.86a141.043,141.043,0,0,0-2.919-42.767c-7.129-31.01-24.113-56.118-50.48-74.627-13.755-9.655-29.308-16.856-47.547-22.013a214.429,214.429,0,0,0-45.926-7.527,190.9,190.9,0,0,0-50.24,3.206c-17.645,3.595-32.786,9.412-46.291,17.785-30.19,18.718-48.915,45.337-55.655,79.119-1.683,8.44-1.179,15.255,1.587,21.448a6.576,6.576,0,0,1-.494,6.007,53.683,53.683,0,0,1-3.188,4.7l-1.355,1.739c-6.825,8.757-13.882,17.812-20.9,26.67q-1.311,1.654-2.629,3.305a238.092,238.092,0,0,0-15.307,20.7c-2.143,3.392-4.306,7.029-5.147,10.922a3.725,3.725,0,0,0,.947,3.838,18.882,18.882,0,0,0,3.633,2.864c4.389,2.634,8.077,4.669,12.227,4.922a19.673,19.673,0,0,1,6.844,1.824c5.015,2.312,7.129,6.616,5.954,12.118a30.7,30.7,0,0,1-.886,3.119c-.114.35-.228.7-.334,1.051-.137.454-.3.908-.458,1.362a9.114,9.114,0,0,0-.419,1.364,16.924,16.924,0,0,1-3.34,8.388c-.417.569-.842,1.132-1.268,1.695-.368.487-.736.973-1.1,1.465-1.558,2.118-1.448,3.23.493,4.959.83.739,1.778,1.452,2.782,2.206l.779.587c1.578,1.2,3.96,3.006,4.263,6.139s-1.7,5.385-3.029,6.871c-.423.473-.851.939-1.28,1.4-.956,1.037-1.858,2.016-2.617,3.009l-.063.084c.038.045.079.094.124.145.288.329.581.651.875.975.679.745,1.381,1.516,2.068,2.4l.765.981a61.354,61.354,0,0,1,3.963,5.484,16.738,16.738,0,0,1,1.649,14.935c-.539,1.5-1.043,3.026-1.5,4.535-.438,1.454-.89,2.9-1.343,4.352-1.183,3.792-2.3,7.373-3.19,11.039a11.639,11.639,0,0,0,.972,8.959,28.272,28.272,0,0,0,11.673,11.46,29.718,29.718,0,0,0,14.164,3.7c10.622-.043,21.409.035,31.84.11q9.638.067,19.274.111a8.025,8.025,0,0,1,7.406,4.047c.376.655.765,1.307,1.154,1.96a50.585,50.585,0,0,1,3.648,6.924c3.718,9.159,5.587,18.626,7.479,29.163C134.73,494.115,135.131,496.586,135.518,498.989ZM30.233,334.021Z"/></g></svg>